*******************************************************************************
                           Fresh Meat (2012) WEBRip
*******************************************************************************

-------------------------------------------------------------------------------
                              General Information
-------------------------------------------------------------------------------
Type.................: Movie



Video Format.........: AVI
Video Bitrate........: 1488
Resolution...........: 640 x 360
Color................: 8 bit
FPS..................: 24.000
Source...............: WEB 16:9
Original Format......: NTSC
Genre................: Horror / Comedy
IMDb Rating..........: 5.1
Movie Information....: http://www.imdb.com/title/tt2396495/

-------------------------------------------------------------------------------
                               Post Information
-------------------------------------------------------------------------------
Posted by............: RadioResearch
Posted on............: 4/17/2013

-------------------------------------------------------------------------------
                                 Release Notes
-------------------------------------------------------------------------------
SEEDBOX SUPPORTED!!

A dysfunctional gang of criminals takes a middle class Maori family hostage and 
discovers too late that they are cannibals. 

Enjoy!
RadioResearch

General
Complete name                            : G:Fresh Meat (2012)Fresh Meat.avi
Format                                   : AVI
Format/Info                              : Audio Video Interleave
File size                                : 976 MiB
Duration                                 : 1h 31mn
Overall bit rate                         : 1 488 Kbps

Video
ID                                       : 0
Format                                   : MPEG-4 Visual
Format profile                           : Simple@L3
Format settings, BVOP                    : No
Format settings, QPel                    : No
Format settings, GMC                     : No warppoints
Format settings, Matrix                  : Default (H.263)
Codec ID                                 : XVID
Codec ID/Hint                            : XviD
Duration                                 : 1h 31mn
Bit rate                                 : 1 347 Kbps
Width                                    : 640 pixels
Height                                   : 360 pixels
Display aspect ratio                     : 16:9
Frame rate                               : 24.000 fps
Color space                              : YUV
Chroma subsampling                       : 4:2:0
Bit depth                                : 8 bits
Scan type                                : Progressive
Compression mode                         : Lossy
Bits/(Pixel*Frame)                       : 0.244
Stream size                              : 884 MiB (91%)
Writing library                          : XviD 1.2.1 (UTC 2008-12-04)

Audio
ID                                       : 1
Format                                   : MPEG Audio
Format version                           : Version 1
Format profile                           : Layer 3
Mode                                     : Joint stereo
Mode extension                           : MS Stereo
Codec ID                                 : 55
Codec ID/Hint                            : MP3
Duration                                 : 1h 31mn
Bit rate mode                            : Constant
Bit rate                                 : 128 Kbps
Channel(s)                               : 2 channels
Sampling rate                            : 44.1 KHz
Compression mode                         : Lossy
Stream size                              : 83.9 MiB (9%)
Alignment                                : Aligned on interleaves
Interleave, duration                     : 26 ms (0.63 video frame)
Writing library                          : LAME3.98.2




-------------------------------------------------------------------------------
Generated with Cool NFO Creator - http://fly.to/coolbeans
-------------------------------------------------------------------------------
